<svg width="93" height="121" viewBox="0 0 93 121" fill="none" xmlns="http://www.w3.org/2000/svg">
<path d="M60.1223 70.0773C58.2919 66.7675 56.4011 63.3483 54.6613 60.0989H54.016C55.7218 63.2954 57.5786 66.6581 59.3901 69.9301H55.2991C55.1255 69.3338 54.5594 67.6091 53.3932 65.8618C51.5062 63.0313 48.9437 61.5292 45.9774 61.5179C42.9808 61.5556 40.4183 63.0652 38.5615 65.8844C37.4179 67.6242 36.8783 69.3338 36.7122 69.9301H32.6325C34.6893 66.3448 36.1423 63.7747 38.0746 60.0989H37.4293C35.497 63.7672 34.0251 66.3562 31.8928 70.0735L31.6475 70.5H37.1538L37.2066 70.2811C37.2255 70.2019 39.2068 62.1746 45.9774 62.0878C52.6649 62.1142 54.7821 70.2019 54.8047 70.2849L54.8576 70.5H60.3525L60.1185 70.0773H60.1223ZM54.6236 55.8343H52.963C51.4044 51.8452 50.5741 48.8448 50.3137 47.8598H50.2835L51.5251 44.3576H49.3211C48.5323 39.3042 47.5511 23.3025 47.4945 20.589L47.4832 20.0342C47.4303 17.5094 47.385 15.3242 47.4643 13.4825C47.4756 13.2599 47.5096 13.0523 47.5096 13.0523C47.6606 11.9352 48.17 11.5918 48.3625 11.5276C48.5172 11.4748 48.7701 11.4672 48.7701 11.4672V9.56135H47.8153L48.0304 8.1612H47.3133V6.58367H46.2906V0.5H45.7207V6.58367H44.698V8.1612H43.9847L44.1998 9.56135H43.245V11.4672C43.245 11.4672 43.4978 11.4748 43.6526 11.5276C43.8677 11.5993 44.4791 12.0144 44.5432 13.4825C44.6263 15.328 44.5772 17.5094 44.5244 20.038L44.513 20.589C44.4564 23.3025 43.4752 39.3042 42.6864 44.3576H40.49L41.6788 47.9202C41.407 48.958 40.5768 51.9169 39.0483 55.8343H37.4293V60.0989H54.6236V55.8343ZM45.2678 7.14977H46.7435V8.15743H45.2678V7.14977ZM47.3624 8.7273L47.2341 9.55758H44.7848L44.6565 8.7273H47.3662H47.3624ZM43.8186 10.8973V10.1312H48.1965V10.8973H43.8186ZM45.0867 20.6003L45.098 20.0493C45.1508 17.6301 45.1924 15.5318 45.1244 13.7241H46.8869C46.819 15.528 46.8642 17.6301 46.9133 20.0455L46.9246 20.6003C46.9812 23.3025 47.9549 39.1645 48.7475 44.3576H43.2639C44.0526 39.1645 45.0301 23.3025 45.0867 20.6003ZM43.6677 55.8343L44.9621 49.8261H47.0567L48.3512 55.8343H43.6714H43.6677ZM48.9286 55.8343L47.5134 49.2524H44.4979L43.0827 55.8343H39.6597C41.1768 51.9206 41.992 48.9845 42.2486 48.0032H49.7664C50.0231 48.9845 50.8345 51.9206 52.3554 55.8343H48.9324H48.9286Z" fill="#B47E00"/>
<path d="M1.61961 89.5V87.5V80.98V80.9H3.15961H4.61961V80.98V87.5V89.5V93.84C4.61961 93.94 4.61961 93.96 4.69961 93.96H8.01961H8.87961H9.45961H9.53961V96.5H5.87961H1.61961V96.4V89.5ZM20.7121 93.42H15.5721C14.7521 95.42 14.3721 96.32 14.3321 96.44V96.5H12.8521H11.2521V96.44C11.3121 96.32 11.7121 95.42 14.2921 89.48L18.1121 80.62H18.5321L22.2921 89.48C24.8121 95.42 25.1921 96.3 25.2321 96.44V96.5H23.6721H21.9121V96.44C21.8721 96.32 21.5121 95.42 20.7121 93.42ZM16.4921 91.02H19.8121V90.96C18.6721 88 18.3721 87.16 18.1921 86.54H18.1721C17.9921 87.16 17.6921 88.02 16.4921 90.96V91.02ZM36.957 89.5V83.44H34.037H32.797H32.697V80.9H37.417H39.317H44.197V83.44H44.117H42.897H39.937V89.5V96.46V96.5H38.457H36.957V96.46V89.5ZM61.6441 88.6V88.62C61.6441 93.16 58.2441 96.74 53.5241 96.74C48.9641 96.74 45.4641 93.2 45.4641 88.74C45.4641 84.22 49.0041 80.7 53.7241 80.7C58.3241 80.7 61.6441 84.14 61.6441 88.6ZM58.5641 88.7V88.68C58.5641 85.74 56.4641 83.44 53.5841 83.44C50.6641 83.44 48.5241 85.72 48.5241 88.72C48.5241 91.64 50.6441 94 53.6041 94C56.5641 94 58.5641 91.66 58.5641 88.7ZM64.758 89.48V87.5V80.94V80.9H66.258H67.798V80.94V87.5V89.44C67.798 90.92 67.938 91.9 68.338 92.6C68.878 93.5 69.998 94 71.138 94C72.318 94 73.298 93.56 73.878 92.7C74.378 91.96 74.538 90.9 74.538 89.36V87.5V80.94V80.9H76.018H77.478V80.94V87.5V89.4C77.478 91.4 77.258 92.74 76.618 93.88C75.778 95.44 73.818 96.78 71.178 96.78C68.478 96.78 66.438 95.66 65.478 93.74C64.918 92.66 64.758 91.44 64.758 89.48ZM81.272 89.5V87.5V81V80.96C81.572 80.92 82.032 80.9 82.492 80.88C82.932 80.86 83.752 80.84 84.212 80.84C85.372 80.84 86.372 80.94 87.272 81.22C88.432 81.56 90.232 82.66 90.232 85.4C90.232 87.3 89.232 88.5 88.552 89C88.172 89.3 87.712 89.56 87.392 89.68V89.72C87.532 89.92 87.772 90.28 91.012 94.82C91.452 95.42 92.092 96.32 92.192 96.46V96.5H90.532H89.332H88.772C87.632 94.78 86.272 92.72 84.592 90.26H84.112V91.06V96.46V96.5H82.712H81.272V96.46V89.5ZM87.312 85.64V85.62C87.312 84.16 86.332 83.34 84.872 83.34C84.532 83.34 84.292 83.36 84.112 83.38V88.1C84.252 88.12 84.452 88.12 84.652 88.12C85.212 88.12 85.752 87.98 86.132 87.74C86.692 87.44 87.312 86.78 87.312 85.64ZM16.397 109.5V107.5V100.94V100.9H20.457H24.217V103.42H24.177H21.897H19.397V107.32H22.037H23.697H23.737V108.54V109.84H23.697H22.077H19.397V113.66V113.96H22.857H24.337H24.377V116.5H20.717H16.397V116.46V109.5ZM30.8462 107.5V109.5V116.46V116.5H29.4062H27.8462V116.44V109.5V107.5V100.98V100.9H29.3462H30.8462V100.96V107.5ZM37.9009 103.42V107.72H40.5409H42.1609H42.2409V108.94V110.24H42.1609H40.5809H37.9009V110.74V116.44V116.5H36.4209H34.9009V116.4V109.5V107.5V101.04V100.9H38.9409H42.7209V103.42H42.6209H40.4009H37.9009ZM49.1157 103.42V107.72H51.7557H53.3757H53.4557V108.94V110.24H53.3757H51.7957H49.1157V110.74V116.44V116.5H47.6357H46.1157V116.4V109.5V107.5V101.04V100.9H50.1557H53.9357V103.42H53.8357H51.6157H49.1157ZM57.3305 109.5V107.5V100.94V100.9H61.3905H65.1505V103.42H65.1105H62.8305H60.3305V107.32H62.9705H64.6305H64.6705V108.54V109.84H64.6305H63.0105H60.3305V113.66V113.96H63.7905H65.2705H65.3105V116.5H61.6505H57.3305V116.46V109.5ZM68.7798 109.5V107.5V100.98V100.9H70.3198H71.7798V100.98V107.5V109.5V113.84C71.7798 113.94 71.7798 113.96 71.8598 113.96H75.1798H76.0398H76.6198H76.6998V116.5H73.0398H68.7798V116.4V109.5Z" fill="#B47E00"/>
</svg>
